<?xml version="1.0" encoding="UTF-8"?>
<svg id="Layer_1" data-name="Layer 1" xmlns="http://www.w3.org/2000/svg" viewBox="0 0 1334 277">
  <defs>
    <style>
      .cls-1 {
        fill: #f4f1ed;
        stroke-width: 0px;
      }
    </style>
  </defs>
  <path class="cls-1" d="M43.21,83.65h33.25l22.69,95.16,27.97-95.16h23.22l27.97,95.16,22.69-95.16h33.25l-40.11,135.61h-27.97l-27.44-86.18-27.18,86.18h-27.97L43.21,83.65Z"/>
  <path class="cls-1" d="M370.09,131.23c0-16.92-7.13-24.32-22.96-24.32-11.08,0-20.32,4.49-27.44,13.48l-22.69-16.13c12.14-15.86,29.56-23.53,53.3-23.53s40.37,7.93,47.5,22.73c3.7,7.66,5.01,16.65,5.01,33.57v82.21h-25.6l-2.11-7.93c-8.71,7.93-18.47,10.84-36.94,10.84-33.51,0-46.18-11.63-46.18-42.03,0-32.52,12.4-42.82,50.67-42.82h27.44v-6.08ZM346.6,159.52c-16.89,0-23.48,5.55-23.48,19.3s5.8,18.24,23.48,18.24c10.56,0,17.15-2.38,20.58-7.4,2.37-3.17,2.9-6.61,2.9-15.86v-14.27h-23.49Z"/>
  <path class="cls-1" d="M438.71,109.56v-25.9h15.3l1.85-39.65h30.87v39.65h26.92v25.9h-26.92v56.31c0,20.62,5.28,26.96,23.22,26.7h3.69v26.7h-4.75c-45.39,0-54.89-9.78-54.89-56.57v-53.13h-15.3Z"/>
  <path class="cls-1" d="M541.86,109.56v-25.9h15.3l1.85-39.65h30.87v39.65h26.92v25.9h-26.92v56.31c0,20.62,5.28,26.96,23.22,26.7h3.69v26.7h-4.75c-45.39,0-54.89-9.78-54.89-56.57v-53.13h-15.3Z"/>
  <path class="cls-1" d="M680.06,163.75c0,21.41,10.03,32.78,29.29,32.78,12.93,0,20.85-3.97,27.97-14.01l24.01,14.01c-11.35,18.24-27.18,25.64-55.68,25.64-40.9,0-58.58-19.56-58.58-65.03v-9.52c0-47.32,16.89-66.88,58.05-66.88s58.05,19.56,58.05,66.88v11.9h-83.12v4.23ZM732.3,136.79v-2.91c0-18.5-9.24-28.55-26.39-28.55s-26.13,10.31-26.13,28.55v2.91h52.51Z"/>
  <path class="cls-1" d="M801.89,83.65h25.07l3.96,9.78c8.44-9.25,16.1-12.69,27.97-12.69,9.76,0,17.94,2.38,29.03,8.46l-14.25,26.96c-6.86-5.29-11.87-7.14-17.94-7.14-15.04,0-21.11,12.95-21.11,44.67v65.56h-32.72V83.65Z"/>
  <path class="cls-1" d="M941.36,182.25c7.92,11.1,14.51,14.01,30.61,14.01,18.21,0,26.92-5.55,26.92-17.18,0-5.82-2.64-10.05-7.39-11.9q-4.22-1.85-21.64-3.97c-33.51-4.23-45.39-14.54-45.39-39.39,0-27.76,17.42-43.09,48.82-43.09,25.33,0,41.96,7.93,53.04,25.91l-24.28,14.01c-7.13-10.57-13.72-14.01-26.39-14.01s-20.06,5.55-20.06,15.6,5.01,12.95,23.49,15.07c21.11,2.38,30.61,4.76,38.53,10.31,8.18,5.82,12.4,16.92,12.4,31.99,0,29.08-18.21,42.56-56.73,42.56-28.24,0-46.71-8.46-55.94-25.91l24.01-14.01Z"/>
  <path class="cls-1" d="M1064.87,141.28c0-42.56,17.42-60.54,58.58-60.54s58.32,17.98,58.32,60.54v20.35c0,42.56-17.42,60.53-58.32,60.53s-58.58-17.98-58.58-60.53v-20.35ZM1149.05,143.39c0-25.9-7.39-36.48-25.6-36.48s-25.86,10.57-25.86,36.48v15.86c0,25.91,7.39,36.48,25.86,36.48s25.6-10.57,25.6-36.48v-15.86Z"/>
  <path class="cls-1" d="M1221.59,83.65h24.54l2.9,11.9c8.71-10.57,18.74-14.8,36.15-14.8,23.22,0,38.53,8.99,44.86,26.17,2.9,7.66,3.96,17.98,3.96,34.63v77.72h-32.72v-74.02c0-26.17-6.33-36.48-22.69-36.48-17.68,0-24.28,10.84-24.28,40.45v70.05h-32.72V83.65Z"/>
  <path class="cls-1" d="M138.5,276.93C62.17,276.93.07,214.83.07,138.5S62.17.07,138.5.07s138.43,62.1,138.43,138.43-62.1,138.43-138.43,138.43ZM138.5,9.93C67.6,9.93,9.93,67.6,9.93,138.5s57.68,128.57,128.57,128.57,128.57-57.68,128.57-128.57S209.4,9.93,138.5,9.93Z"/>
</svg>